<svg xmlns="http://www.w3.org/2000/svg" width="12" height="16" viewBox="0 0 12 16"><g transform="translate(-61)"><path d="M72.865,3.887,69.173.137A.461.461,0,0,0,68.846,0H62.385A1.4,1.4,0,0,0,61,1.406V14.594A1.4,1.4,0,0,0,62.385,16h9.231A1.4,1.4,0,0,0,73,14.594V4.219A.477.477,0,0,0,72.865,3.887ZM69.308,1.6l2.117,2.15H69.769a.466.466,0,0,1-.462-.469Zm2.308,13.462H62.385a.466.466,0,0,1-.462-.469V1.406a.466.466,0,0,1,.462-.469h6V3.281a1.4,1.4,0,0,0,1.385,1.406h2.308v9.906A.466.466,0,0,1,71.615,15.062Z" transform="translate(0)" fill="#212121"/><path d="M186.156,242h-4.687a.469.469,0,0,0,0,.938h4.687a.469.469,0,1,0,0-.938Z" transform="translate(-116.357 -234.437)" fill="#212121"/><path d="M186.156,302h-4.687a.469.469,0,0,0,0,.938h4.687a.469.469,0,1,0,0-.937Z" transform="translate(-116.357 -292.563)" fill="#212121"/><path d="M186.156,362h-4.687a.469.469,0,0,0,0,.938h4.687a.469.469,0,1,0,0-.937Z" transform="translate(-116.357 -350.688)" fill="#212121"/><ellipse cx="0.5" rx="0.5" transform="translate(62.905 7.625)" fill="#212121"/><circle cx="0.5" cy="0.5" r="0.5" transform="translate(62.905 8.625)" fill="#212121"/><circle cx="0.5" cy="0.5" r="0.5" transform="translate(62.905 10.625)" fill="#212121"/></g></svg>